Normalized EMG Linear Envelopes
nRows=242
nColumns=4

endheader
time	 med_gas_r	  soleus_r	 tib_ant_r	
2.59476	  0.002904	  0.005425	  0.001564	
2.62802	  0.002892	  0.005465	  0.001584	
2.66129	  0.002890	  0.005514	  0.001612	
2.69456	  0.002896	  0.005561	  0.001642	
2.72782	  0.002911	  0.005597	  0.001673	
2.76109	  0.002932	  0.005617	  0.001703	
2.79435	  0.002960	  0.005621	  0.001729	
2.82762	  0.002994	  0.005622	  0.001744	
2.86089	  0.003034	  0.005622	  0.001742	
2.89415	  0.003069	  0.005618	  0.001725	
2.92742	  0.003095	  0.005614	  0.001704	
2.96069	  0.003119	  0.005613	  0.001686	
2.99395	  0.003158	  0.005616	  0.001672	
3.02722	  0.003217	  0.005617	  0.001662	
3.06048	  0.003282	  0.005611	  0.001657	
3.09375	  0.003336	  0.005590	  0.001654	
3.12702	  0.003362	  0.005558	  0.001648	
3.16028	  0.003364	  0.005526	  0.001636	
3.19355	  0.003345	  0.005501	  0.001621	
3.22681	  0.003313	  0.005473	  0.001608	
3.26008	  0.003282	  0.005435	  0.001601	
3.29335	  0.003259	  0.005392	  0.001603	
3.32661	  0.003246	  0.005352	  0.001618	
3.35988	  0.003259	  0.005335	  0.001641	
3.39315	  0.003307	  0.005341	  0.001670	
3.42641	  0.003382	  0.005359	  0.001704	
3.45968	  0.003451	  0.005381	  0.001739	
3.49294	  0.003478	  0.005397	  0.001772	
3.52621	  0.003450	  0.005415	  0.001800	
3.55948	  0.003376	  0.005443	  0.001821	
3.59274	  0.003274	  0.005488	  0.001834	
3.62601	  0.003162	  0.005549	  0.001836	
3.65927	  0.003059	  0.005609	  0.001824	
3.69254	  0.002986	  0.005650	  0.001800	
3.72581	  0.002959	  0.005676	  0.001769	
3.75907	  0.002976	  0.005690	  0.001738	
3.79234	  0.003025	  0.005693	  0.001712	
3.8256	  0.003095	  0.005693	  0.001687	
3.85887	  0.003183	  0.005707	  0.001658	
3.89214	  0.003283	  0.005745	  0.001630	
3.9254	  0.003382	  0.005803	  0.001607	
3.95867	  0.003463	  0.005865	  0.001591	
3.99194	  0.003515	  0.005921	  0.001581	
4.0252	  0.003527	  0.005959	  0.001576	
4.05847	  0.003502	  0.005962	  0.001579	
4.09173	  0.003456	  0.005932	  0.001596	
4.125	  0.003412	  0.005909	  0.001632	
4.15827	  0.003385	  0.005926	  0.001688	
4.19153	  0.003383	  0.005980	  0.001771	
4.2248	  0.003397	  0.006051	  0.001886	
4.25806	  0.003414	  0.006112	  0.002037	
4.29133	  0.003423	  0.006127	  0.002219	
4.3246	  0.003409	  0.006097	  0.002417	
4.35786	  0.003371	  0.006037	  0.002608	
4.39113	  0.003319	  0.005951	  0.002754	
4.4244	  0.003255	  0.005844	  0.002796	
4.45766	  0.003177	  0.005719	  0.002643	
4.49093	  0.003089	  0.005550	  0.002167	
4.52419	  0.002998	  0.005307	  0.001207	
4.55746	  0.002900	  0.004966	 -0.000411	
4.59073	  0.002783	  0.004495	 -0.002854	
4.62399	  0.002632	  0.003854	 -0.006227	
4.65726	  0.002443	  0.003025	 -0.010499	
4.69052	  0.002229	  0.002025	 -0.015403	
4.72379	  0.002026	  0.000938	 -0.020313	
4.75706	  0.001889	 -0.000051	 -0.024097	
4.79032	  0.001905	 -0.000631	 -0.024990	
4.82359	  0.002201	 -0.000334	 -0.020477	
4.85685	  0.002936	  0.001483	 -0.007289	
4.89012	  0.004278	  0.005623	  0.018453	
4.92339	  0.006406	  0.012990	  0.060829	
4.95665	  0.009462	  0.024462	  0.123337	
4.98992	  0.013496	  0.040668	  0.207621	
5.02319	  0.018373	  0.061635	  0.311619	
5.05645	  0.023668	  0.086340	  0.427279	
5.08972	  0.028667	  0.112408	  0.542060	
5.12298	  0.032834	  0.137040	  0.647413	
5.15625	  0.035971	  0.158064	  0.740551	
5.18952	  0.038155	  0.174681	  0.819589	
5.22278	  0.039642	  0.187436	  0.882878	
5.25605	  0.040810	  0.197185	  0.929950	
5.28931	  0.041936	  0.204769	  0.962370	
5.32258	  0.042948	  0.210224	  0.982362	
5.35585	  0.043756	  0.214179	  0.989898	
5.38911	  0.044339	  0.217438	  0.983628	
5.42238	  0.044699	  0.220285	  0.967642	
5.45565	  0.044841	  0.222289	  0.949569	
5.48891	  0.044700	  0.223086	  0.932826	
5.52218	  0.044199	  0.221430	  0.918906	
5.55544	  0.043457	  0.216841	  0.908479	
5.58871	  0.042608	  0.209202	  0.896832	
5.62198	  0.041675	  0.199661	  0.881906	
5.65524	  0.040696	  0.189594	  0.866214	
5.68851	  0.039680	  0.179423	  0.848413	
5.72177	  0.038675	  0.169825	  0.825174	
5.75504	  0.037720	  0.162118	  0.797631	
5.78831	  0.036728	  0.156891	  0.766957	
5.82157	  0.035732	  0.153774	  0.733655	
5.85484	  0.034808	  0.152116	  0.701112	
5.8881	  0.033985	  0.151983	  0.673697	
5.92137	  0.033409	  0.153331	  0.654451	
5.95464	  0.033225	  0.155519	  0.645520	
5.9879	  0.033407	  0.157352	  0.645633	
6.02117	  0.033788	  0.157998	  0.652020	
6.05444	  0.034144	  0.156833	  0.662253	
6.0877	  0.034342	  0.154351	  0.675489	
6.12097	  0.034434	  0.151546	  0.691641	
6.15423	  0.034464	  0.149510	  0.710054	
6.1875	  0.034488	  0.148651	  0.728527	
6.22077	  0.034525	  0.148318	  0.743289	
6.25403	  0.034434	  0.147220	  0.752762	
6.2873	  0.034034	  0.144527	  0.755234	
6.32056	  0.033348	  0.141233	  0.750706	
6.35383	  0.032506	  0.138194	  0.739674	
6.3871	  0.031614	  0.135704	  0.723910	
6.42036	  0.030848	  0.134198	  0.707717	
6.45363	  0.030389	  0.133884	  0.693836	
6.4869	  0.030219	  0.134729	  0.684231	
6.52016	  0.030300	  0.137276	  0.678225	
6.55343	  0.030577	  0.141388	  0.675357	
6.58669	  0.030953	  0.146008	  0.674777	
6.61996	  0.031337	  0.150525	  0.676450	
6.65323	  0.031670	  0.154358	  0.677948	
6.68649	  0.031926	  0.157274	  0.676215	
6.71976	  0.032006	  0.159239	  0.672570	
6.75302	  0.031977	  0.160178	  0.668613	
6.78629	  0.032007	  0.159683	  0.665573	
6.81956	  0.032207	  0.158006	  0.667232	
6.85282	  0.032594	  0.155839	  0.675273	
6.88609	  0.033044	  0.153796	  0.689196	
6.91935	  0.033439	  0.151924	  0.706465	
6.95262	  0.033671	  0.149308	  0.722921	
6.98589	  0.033734	  0.145102	  0.734993	
7.01915	  0.033866	  0.139974	  0.738492	
7.05242	  0.034232	  0.135748	  0.731365	
7.08569	  0.034753	  0.134156	  0.715835	
7.11895	  0.035228	  0.135988	  0.694837	
7.15222	  0.035509	  0.141055	  0.670094	
7.18548	  0.035672	  0.148365	  0.646278	
7.21875	  0.035898	  0.156640	  0.630438	
7.25202	  0.036212	  0.164191	  0.625755	
7.28528	  0.036539	  0.169208	  0.630371	
7.31855	  0.036846	  0.170821	  0.640941	
7.35181	  0.037062	  0.169447	  0.654931	
7.38508	  0.037245	  0.167096	  0.669101	
7.41835	  0.037543	  0.166035	  0.681503	
7.45161	  0.038035	  0.167092	  0.690322	
7.48488	  0.038730	  0.170386	  0.694512	
7.51815	  0.039465	  0.174713	  0.695697	
7.55141	  0.039900	  0.178363	  0.693881	
7.58468	  0.039657	  0.179513	  0.688086	
7.61794	  0.038833	  0.177695	  0.680820	
7.65121	  0.037822	  0.173875	  0.678271	
7.68448	  0.036966	  0.169641	  0.687258	
7.71774	  0.036348	  0.165948	  0.708859	
7.75101	  0.036009	  0.163871	  0.737245	
7.78427	  0.036054	  0.164181	  0.765886	
7.81754	  0.036470	  0.167366	  0.790238	
7.85081	  0.037040	  0.172830	  0.807203	
7.88407	  0.037587	  0.179142	  0.814709	
7.91734	  0.038113	  0.184733	  0.813000	
7.9506	  0.038689	  0.188945	  0.805253	
7.98387	  0.039110	  0.191121	  0.791056	
8.01714	  0.039234	  0.191534	  0.771958	
8.0504	  0.039123	  0.190662	  0.748337	
8.08367	  0.038913	  0.189326	  0.718965	
8.11694	  0.038589	  0.187263	  0.685255	
8.1502	  0.038101	  0.184206	  0.652786	
8.18347	  0.037470	  0.180957	  0.626592	
8.21673	  0.036738	  0.177906	  0.608123	
8.25	  0.035888	  0.174249	  0.596567	
8.28327	  0.034959	  0.170065	  0.589886	
8.31653	  0.034184	  0.165961	  0.585431	
8.3498	  0.033819	  0.162363	  0.580774	
8.38306	  0.033846	  0.159325	  0.574669	
8.41633	  0.034106	  0.156669	  0.568916	
8.4496	  0.034516	  0.154626	  0.567510	
8.48286	  0.034922	  0.153568	  0.573389	
8.51613	  0.035261	  0.152984	  0.586386	
8.5494	  0.035506	  0.152196	  0.603279	
8.58266	  0.035591	  0.151013	  0.621721	
8.61593	  0.035554	  0.149761	  0.639961	
8.64919	  0.035463	  0.149436	  0.657076	
8.68246	  0.035443	  0.150756	  0.672680	
8.71573	  0.035679	  0.153693	  0.685855	
8.74899	  0.036103	  0.156800	  0.695747	
8.78226	  0.036529	  0.158441	  0.701825	
8.81552	  0.036952	  0.158550	  0.704486	
8.84879	  0.037476	  0.158091	  0.705732	
8.88206	  0.038082	  0.157547	  0.705498	
8.91532	  0.038491	  0.157111	  0.699408	
8.94859	  0.038399	  0.157109	  0.683531	
8.98185	  0.037637	  0.157677	  0.657731	
9.01512	  0.036353	  0.158367	  0.626954	
9.04839	  0.034810	  0.158826	  0.598776	
9.08165	  0.033196	  0.158431	  0.576610	
9.11492	  0.031633	  0.156617	  0.560837	
9.14819	  0.030176	  0.152804	  0.548584	
9.18145	  0.028861	  0.146926	  0.537808	
9.21472	  0.027864	  0.140713	  0.528550	
9.24798	  0.027448	  0.135980	  0.521553	
9.28125	  0.027645	  0.133330	  0.516843	
9.31452	  0.028292	  0.132562	  0.513379	
9.34778	  0.029102	  0.133304	  0.513338	
9.38105	  0.029646	  0.134559	  0.516685	
9.41431	  0.029663	  0.135469	  0.521237	
9.44758	  0.029154	  0.135578	  0.523404	
9.48085	  0.028288	  0.134500	  0.519723	
9.51411	  0.027168	  0.131542	  0.507866	
9.54738	  0.025782	  0.126384	  0.485178	
9.58065	  0.024109	  0.119163	  0.449711	
9.61391	  0.022027	  0.109477	  0.400986	
9.64718	  0.019579	  0.097632	  0.342601	
9.68044	  0.016866	  0.084475	  0.279023	
9.71371	  0.014070	  0.070766	  0.215387	
9.74698	  0.011369	  0.057052	  0.155887	
9.78024	  0.008933	  0.044038	  0.104405	
9.81351	  0.006862	  0.032277	  0.063151	
9.84677	  0.005230	  0.022393	  0.032532	
9.88004	  0.004056	  0.014759	  0.011630	
9.91331	  0.003295	  0.009361	 -0.001227	
9.94657	  0.002865	  0.005902	 -0.007962	
9.97984	  0.002677	  0.003970	 -0.010420	
10.0131	  0.002660	  0.003143	 -0.010183	
10.0464	  0.002775	  0.003041	 -0.008484	
10.0796	  0.002999	  0.003352	 -0.006202	
10.1129	  0.003332	  0.003835	 -0.003903	
10.1462	  0.003791	  0.004316	 -0.001904	
10.1794	  0.004402	  0.004712	 -0.000338	
10.2127	  0.005177	  0.005006	  0.000780	
10.246	  0.006103	  0.005221	  0.001510	
10.2792	  0.007096	  0.005386	  0.001936	
10.3125	  0.008007	  0.005517	  0.002140	
10.3458	  0.008661	  0.005612	  0.002194	
10.379	  0.008840	  0.005664	  0.002158	
10.4123	  0.008498	  0.005671	  0.002080	
10.4456	  0.007715	  0.005634	  0.001993	
10.4788	  0.006710	  0.005575	  0.001914	
10.5121	  0.005680	  0.005518	  0.001852	
10.5454	  0.004767	  0.005472	  0.001811	
10.5786	  0.004045	  0.005447	  0.001793	
10.6119	  0.003525	  0.005449	  0.001794	
